<mxfile host="app.diagrams.net" modified="2024-03-26T20:15:19.882Z" agent="Mozilla/5.0 (Windows NT 10.0; Win64; x64; rv:123.0) Gecko/20100101 Firefox/123.0" etag="vYucbdsbmN_uN9X1WZZx" version="24.1.0" type="device">
  <diagram name="Page-1" id="L0Kk7n4HrUE3NebkYSWz">
    <mxGraphModel dx="875" dy="448" grid="1" gridSize="10" guides="1" tooltips="1" connect="1" arrows="1" fold="1" page="1" pageScale="1" pageWidth="850" pageHeight="1100" math="0" shadow="0">
      <root>
        <mxCell id="0" />
        <mxCell id="1" parent="0" />
        <mxCell id="LUQuOdgq-feki1862Wh2-19" value="[1/1] 0" style="rounded=0;orthogonalLoop=1;jettySize=auto;html=1;" parent="1" source="LUQuOdgq-feki1862Wh2-1" target="LUQuOdgq-feki1862Wh2-4" edge="1">
          <mxGeometry relative="1" as="geometry" />
        </mxCell>
        <mxCell id="LUQuOdgq-feki1862Wh2-20" value="[1/1] 0" style="rounded=0;orthogonalLoop=1;jettySize=auto;html=1;" parent="1" source="LUQuOdgq-feki1862Wh2-1" target="LUQuOdgq-feki1862Wh2-5" edge="1">
          <mxGeometry relative="1" as="geometry" />
        </mxCell>
        <mxCell id="LUQuOdgq-feki1862Wh2-21" value="[1/1] 0" style="rounded=0;orthogonalLoop=1;jettySize=auto;html=1;" parent="1" source="LUQuOdgq-feki1862Wh2-1" target="LUQuOdgq-feki1862Wh2-2" edge="1">
          <mxGeometry relative="1" as="geometry" />
        </mxCell>
        <mxCell id="LUQuOdgq-feki1862Wh2-22" value="[1/1] 0" style="rounded=0;orthogonalLoop=1;jettySize=auto;html=1;" parent="1" source="LUQuOdgq-feki1862Wh2-1" target="LUQuOdgq-feki1862Wh2-3" edge="1">
          <mxGeometry relative="1" as="geometry" />
        </mxCell>
        <mxCell id="LUQuOdgq-feki1862Wh2-23" value="[1/1] 0" style="rounded=0;orthogonalLoop=1;jettySize=auto;html=1;" parent="1" source="LUQuOdgq-feki1862Wh2-1" target="LUQuOdgq-feki1862Wh2-7" edge="1">
          <mxGeometry relative="1" as="geometry" />
        </mxCell>
        <mxCell id="LUQuOdgq-feki1862Wh2-24" value="[1/1] 0" style="rounded=0;orthogonalLoop=1;jettySize=auto;html=1;" parent="1" source="LUQuOdgq-feki1862Wh2-1" target="LUQuOdgq-feki1862Wh2-8" edge="1">
          <mxGeometry relative="1" as="geometry" />
        </mxCell>
        <mxCell id="LUQuOdgq-feki1862Wh2-1" value="s" style="ellipse;whiteSpace=wrap;html=1;aspect=fixed;" parent="1" vertex="1">
          <mxGeometry x="160" y="240" width="40" height="40" as="geometry" />
        </mxCell>
        <mxCell id="LUQuOdgq-feki1862Wh2-37" value="[1/1] 2" style="rounded=0;orthogonalLoop=1;jettySize=auto;html=1;fillColor=#ffe6cc;strokeColor=#d79b00;" parent="1" source="LUQuOdgq-feki1862Wh2-2" target="LUQuOdgq-feki1862Wh2-13" edge="1">
          <mxGeometry x="-0.8708" relative="1" as="geometry">
            <mxPoint as="offset" />
          </mxGeometry>
        </mxCell>
        <mxCell id="LUQuOdgq-feki1862Wh2-38" value="[0/1] 10" style="rounded=0;orthogonalLoop=1;jettySize=auto;html=1;fillColor=#ffe6cc;strokeColor=#d79b00;" parent="1" source="LUQuOdgq-feki1862Wh2-2" target="LUQuOdgq-feki1862Wh2-12" edge="1">
          <mxGeometry x="-0.8018" y="3" relative="1" as="geometry">
            <mxPoint as="offset" />
          </mxGeometry>
        </mxCell>
        <mxCell id="LUQuOdgq-feki1862Wh2-39" value="[0/1] 13" style="rounded=0;orthogonalLoop=1;jettySize=auto;html=1;fillColor=#ffe6cc;strokeColor=#d79b00;" parent="1" source="LUQuOdgq-feki1862Wh2-2" target="LUQuOdgq-feki1862Wh2-16" edge="1">
          <mxGeometry x="-0.8974" y="-7" relative="1" as="geometry">
            <mxPoint as="offset" />
          </mxGeometry>
        </mxCell>
        <mxCell id="LUQuOdgq-feki1862Wh2-2" value="3" style="ellipse;whiteSpace=wrap;html=1;aspect=fixed;fillColor=#ffe6cc;strokeColor=#d79b00;" parent="1" vertex="1">
          <mxGeometry x="280" y="200" width="40" height="40" as="geometry" />
        </mxCell>
        <mxCell id="LUQuOdgq-feki1862Wh2-40" value="[0/1] 10" style="rounded=0;orthogonalLoop=1;jettySize=auto;html=1;fillColor=#f8cecc;strokeColor=#b85450;" parent="1" source="LUQuOdgq-feki1862Wh2-3" target="LUQuOdgq-feki1862Wh2-13" edge="1">
          <mxGeometry x="-0.8502" relative="1" as="geometry">
            <mxPoint as="offset" />
          </mxGeometry>
        </mxCell>
        <mxCell id="LUQuOdgq-feki1862Wh2-41" value="[0/1] 5" style="rounded=0;orthogonalLoop=1;jettySize=auto;html=1;fillColor=#f8cecc;strokeColor=#b85450;" parent="1" source="LUQuOdgq-feki1862Wh2-3" target="LUQuOdgq-feki1862Wh2-11" edge="1">
          <mxGeometry x="-0.8018" y="-3" relative="1" as="geometry">
            <mxPoint as="offset" />
          </mxGeometry>
        </mxCell>
        <mxCell id="LUQuOdgq-feki1862Wh2-42" value="[1/1] 15" style="rounded=0;orthogonalLoop=1;jettySize=auto;html=1;fillColor=#f8cecc;strokeColor=#b85450;" parent="1" source="LUQuOdgq-feki1862Wh2-3" target="LUQuOdgq-feki1862Wh2-16" edge="1">
          <mxGeometry x="-0.8038" y="6" relative="1" as="geometry">
            <mxPoint as="offset" />
          </mxGeometry>
        </mxCell>
        <mxCell id="LUQuOdgq-feki1862Wh2-3" value="4" style="ellipse;whiteSpace=wrap;html=1;aspect=fixed;fillColor=#f8cecc;strokeColor=#b85450;" parent="1" vertex="1">
          <mxGeometry x="280" y="280" width="40" height="40" as="geometry" />
        </mxCell>
        <mxCell id="LUQuOdgq-feki1862Wh2-31" value="[0/1] 13" style="rounded=0;orthogonalLoop=1;jettySize=auto;html=1;fillColor=#dae8fc;strokeColor=#6c8ebf;" parent="1" source="LUQuOdgq-feki1862Wh2-4" target="LUQuOdgq-feki1862Wh2-14" edge="1">
          <mxGeometry x="-0.7127" y="6" relative="1" as="geometry">
            <mxPoint as="offset" />
          </mxGeometry>
        </mxCell>
        <mxCell id="LUQuOdgq-feki1862Wh2-32" value="[1/1] 14" style="rounded=0;orthogonalLoop=1;jettySize=auto;html=1;fillColor=#dae8fc;strokeColor=#6c8ebf;" parent="1" source="LUQuOdgq-feki1862Wh2-4" target="LUQuOdgq-feki1862Wh2-12" edge="1">
          <mxGeometry x="-0.803" y="7" relative="1" as="geometry">
            <mxPoint as="offset" />
          </mxGeometry>
        </mxCell>
        <mxCell id="LUQuOdgq-feki1862Wh2-33" value="[0/1] 18" style="rounded=0;orthogonalLoop=1;jettySize=auto;html=1;fillColor=#dae8fc;strokeColor=#6c8ebf;" parent="1" source="LUQuOdgq-feki1862Wh2-4" target="LUQuOdgq-feki1862Wh2-15" edge="1">
          <mxGeometry x="-0.7881" y="-4" relative="1" as="geometry">
            <mxPoint x="-1" as="offset" />
          </mxGeometry>
        </mxCell>
        <mxCell id="LUQuOdgq-feki1862Wh2-4" value="1" style="ellipse;whiteSpace=wrap;html=1;aspect=fixed;fillColor=#dae8fc;strokeColor=#6c8ebf;" parent="1" vertex="1">
          <mxGeometry x="280" y="40" width="40" height="40" as="geometry" />
        </mxCell>
        <mxCell id="LUQuOdgq-feki1862Wh2-34" value="[0/1] 4" style="rounded=0;orthogonalLoop=1;jettySize=auto;html=1;fillColor=#d5e8d4;strokeColor=#82b366;" parent="1" source="LUQuOdgq-feki1862Wh2-5" target="LUQuOdgq-feki1862Wh2-14" edge="1">
          <mxGeometry x="-0.8" relative="1" as="geometry">
            <mxPoint as="offset" />
          </mxGeometry>
        </mxCell>
        <mxCell id="LUQuOdgq-feki1862Wh2-35" value="[0/1] 2" style="rounded=0;orthogonalLoop=1;jettySize=auto;html=1;fillColor=#d5e8d4;strokeColor=#82b366;" parent="1" source="LUQuOdgq-feki1862Wh2-5" target="LUQuOdgq-feki1862Wh2-11" edge="1">
          <mxGeometry x="-0.683" y="-3" relative="1" as="geometry">
            <mxPoint as="offset" />
          </mxGeometry>
        </mxCell>
        <mxCell id="LUQuOdgq-feki1862Wh2-36" value="[1/1] 3" style="rounded=0;orthogonalLoop=1;jettySize=auto;html=1;fillColor=#d5e8d4;strokeColor=#82b366;" parent="1" source="LUQuOdgq-feki1862Wh2-5" target="LUQuOdgq-feki1862Wh2-15" edge="1">
          <mxGeometry x="-0.803" y="-7" relative="1" as="geometry">
            <mxPoint as="offset" />
          </mxGeometry>
        </mxCell>
        <mxCell id="LUQuOdgq-feki1862Wh2-5" value="2" style="ellipse;whiteSpace=wrap;html=1;aspect=fixed;fillColor=#d5e8d4;strokeColor=#82b366;" parent="1" vertex="1">
          <mxGeometry x="280" y="120" width="40" height="40" as="geometry" />
        </mxCell>
        <mxCell id="LUQuOdgq-feki1862Wh2-43" value="[1/1] 10" style="rounded=0;orthogonalLoop=1;jettySize=auto;html=1;fillColor=#e1d5e7;strokeColor=#9673a6;" parent="1" source="LUQuOdgq-feki1862Wh2-7" target="LUQuOdgq-feki1862Wh2-14" edge="1">
          <mxGeometry x="-0.8502" relative="1" as="geometry">
            <mxPoint as="offset" />
          </mxGeometry>
        </mxCell>
        <mxCell id="LUQuOdgq-feki1862Wh2-44" value="[0/1] 17" style="rounded=0;orthogonalLoop=1;jettySize=auto;html=1;fillColor=#e1d5e7;strokeColor=#9673a6;" parent="1" source="LUQuOdgq-feki1862Wh2-7" target="LUQuOdgq-feki1862Wh2-15" edge="1">
          <mxGeometry x="-0.8" y="10" relative="1" as="geometry">
            <mxPoint as="offset" />
          </mxGeometry>
        </mxCell>
        <mxCell id="LUQuOdgq-feki1862Wh2-45" value="[0/1] 12" style="rounded=0;orthogonalLoop=1;jettySize=auto;html=1;fillColor=#e1d5e7;strokeColor=#9673a6;" parent="1" source="LUQuOdgq-feki1862Wh2-7" target="LUQuOdgq-feki1862Wh2-16" edge="1">
          <mxGeometry x="-0.8018" y="3" relative="1" as="geometry">
            <mxPoint as="offset" />
          </mxGeometry>
        </mxCell>
        <mxCell id="LUQuOdgq-feki1862Wh2-7" value="5" style="ellipse;whiteSpace=wrap;html=1;aspect=fixed;fillColor=#e1d5e7;strokeColor=#9673a6;" parent="1" vertex="1">
          <mxGeometry x="280" y="360" width="40" height="40" as="geometry" />
        </mxCell>
        <mxCell id="LUQuOdgq-feki1862Wh2-46" value="[0/1] 20" style="rounded=0;orthogonalLoop=1;jettySize=auto;html=1;fillColor=#fff2cc;strokeColor=#d6b656;" parent="1" source="LUQuOdgq-feki1862Wh2-8" target="LUQuOdgq-feki1862Wh2-13" edge="1">
          <mxGeometry x="-0.9088" y="12" relative="1" as="geometry">
            <mxPoint as="offset" />
          </mxGeometry>
        </mxCell>
        <mxCell id="LUQuOdgq-feki1862Wh2-47" value="[1/1] 6" style="rounded=0;orthogonalLoop=1;jettySize=auto;html=1;fillColor=#fff2cc;strokeColor=#d6b656;" parent="1" source="LUQuOdgq-feki1862Wh2-8" target="LUQuOdgq-feki1862Wh2-11" edge="1">
          <mxGeometry x="-0.6613" relative="1" as="geometry">
            <mxPoint as="offset" />
          </mxGeometry>
        </mxCell>
        <mxCell id="LUQuOdgq-feki1862Wh2-48" value="&lt;div&gt;[0/1] 16&lt;/div&gt;" style="rounded=0;orthogonalLoop=1;jettySize=auto;html=1;fillColor=#fff2cc;strokeColor=#d6b656;" parent="1" source="LUQuOdgq-feki1862Wh2-8" target="LUQuOdgq-feki1862Wh2-12" edge="1">
          <mxGeometry x="-0.7368" y="-11" relative="1" as="geometry">
            <mxPoint as="offset" />
          </mxGeometry>
        </mxCell>
        <mxCell id="LUQuOdgq-feki1862Wh2-8" value="6" style="ellipse;whiteSpace=wrap;html=1;aspect=fixed;fillColor=#fff2cc;strokeColor=#d6b656;" parent="1" vertex="1">
          <mxGeometry x="280" y="440" width="40" height="40" as="geometry" />
        </mxCell>
        <mxCell id="LUQuOdgq-feki1862Wh2-27" value="[1/1] 0" style="rounded=0;orthogonalLoop=1;jettySize=auto;html=1;" parent="1" source="LUQuOdgq-feki1862Wh2-11" target="LUQuOdgq-feki1862Wh2-17" edge="1">
          <mxGeometry relative="1" as="geometry" />
        </mxCell>
        <mxCell id="LUQuOdgq-feki1862Wh2-11" value="C" style="ellipse;whiteSpace=wrap;html=1;aspect=fixed;" parent="1" vertex="1">
          <mxGeometry x="520" y="200" width="40" height="40" as="geometry" />
        </mxCell>
        <mxCell id="LUQuOdgq-feki1862Wh2-28" value="[1/1] 0" style="rounded=0;orthogonalLoop=1;jettySize=auto;html=1;" parent="1" source="LUQuOdgq-feki1862Wh2-12" target="LUQuOdgq-feki1862Wh2-17" edge="1">
          <mxGeometry relative="1" as="geometry" />
        </mxCell>
        <mxCell id="LUQuOdgq-feki1862Wh2-12" value="D" style="ellipse;whiteSpace=wrap;html=1;aspect=fixed;" parent="1" vertex="1">
          <mxGeometry x="520" y="280" width="40" height="40" as="geometry" />
        </mxCell>
        <mxCell id="LUQuOdgq-feki1862Wh2-25" value="[1/1] 0" style="rounded=0;orthogonalLoop=1;jettySize=auto;html=1;" parent="1" source="LUQuOdgq-feki1862Wh2-13" target="LUQuOdgq-feki1862Wh2-17" edge="1">
          <mxGeometry relative="1" as="geometry" />
        </mxCell>
        <mxCell id="LUQuOdgq-feki1862Wh2-13" value="A" style="ellipse;whiteSpace=wrap;html=1;aspect=fixed;" parent="1" vertex="1">
          <mxGeometry x="520" y="40" width="40" height="40" as="geometry" />
        </mxCell>
        <mxCell id="LUQuOdgq-feki1862Wh2-26" value="[1/1] 0" style="rounded=0;orthogonalLoop=1;jettySize=auto;html=1;" parent="1" source="LUQuOdgq-feki1862Wh2-14" target="LUQuOdgq-feki1862Wh2-17" edge="1">
          <mxGeometry relative="1" as="geometry" />
        </mxCell>
        <mxCell id="LUQuOdgq-feki1862Wh2-14" value="B" style="ellipse;whiteSpace=wrap;html=1;aspect=fixed;" parent="1" vertex="1">
          <mxGeometry x="520" y="120" width="40" height="40" as="geometry" />
        </mxCell>
        <mxCell id="LUQuOdgq-feki1862Wh2-29" value="[1/1] 0" style="rounded=0;orthogonalLoop=1;jettySize=auto;html=1;" parent="1" source="LUQuOdgq-feki1862Wh2-15" target="LUQuOdgq-feki1862Wh2-17" edge="1">
          <mxGeometry relative="1" as="geometry" />
        </mxCell>
        <mxCell id="LUQuOdgq-feki1862Wh2-15" value="E" style="ellipse;whiteSpace=wrap;html=1;aspect=fixed;" parent="1" vertex="1">
          <mxGeometry x="520" y="360" width="40" height="40" as="geometry" />
        </mxCell>
        <mxCell id="LUQuOdgq-feki1862Wh2-30" value="[1/1] 0" style="rounded=0;orthogonalLoop=1;jettySize=auto;html=1;" parent="1" source="LUQuOdgq-feki1862Wh2-16" target="LUQuOdgq-feki1862Wh2-17" edge="1">
          <mxGeometry relative="1" as="geometry" />
        </mxCell>
        <mxCell id="LUQuOdgq-feki1862Wh2-16" value="F" style="ellipse;whiteSpace=wrap;html=1;aspect=fixed;" parent="1" vertex="1">
          <mxGeometry x="520" y="440" width="40" height="40" as="geometry" />
        </mxCell>
        <mxCell id="LUQuOdgq-feki1862Wh2-17" value="t" style="ellipse;whiteSpace=wrap;html=1;aspect=fixed;" parent="1" vertex="1">
          <mxGeometry x="640" y="240" width="40" height="40" as="geometry" />
        </mxCell>
      </root>
    </mxGraphModel>
  </diagram>
</mxfile>
